<svg width="85" height="60" viewBox="0 0 85 60" fill="none" xmlns="http://www.w3.org/2000/svg">
<path d="M4.576 37.8662C3.776 37.8662 3.08267 37.7008 2.496 37.3702C1.92 37.0288 1.472 36.5542 1.152 35.9462C0.832 35.3275 0.672 34.6022 0.672 33.7702C0.672 33.1515 0.762667 32.5968 0.944 32.1062C1.12533 31.6048 1.38133 31.1835 1.712 30.8422C2.05333 30.5008 2.464 30.2395 2.944 30.0582C3.43467 29.8662 3.97867 29.7702 4.576 29.7702C4.94933 29.7702 5.33867 29.8288 5.744 29.9462C6.16 30.0528 6.544 30.2342 6.896 30.4902C7.03467 30.5755 7.12 30.6822 7.152 30.8102C7.19467 30.9275 7.2 31.0502 7.168 31.1782C7.14667 31.3062 7.088 31.4182 6.992 31.5142C6.90667 31.5995 6.8 31.6528 6.672 31.6742C6.544 31.6848 6.40533 31.6475 6.256 31.5622C6 31.3808 5.73867 31.2528 5.472 31.1782C5.20533 31.0928 4.94933 31.0502 4.704 31.0502C4.32 31.0502 3.97867 31.1142 3.68 31.2422C3.392 31.3595 3.14667 31.5355 2.944 31.7702C2.74133 31.9942 2.58667 32.2768 2.48 32.6182C2.384 32.9595 2.336 33.3488 2.336 33.7862C2.336 34.6608 2.53867 35.3488 2.944 35.8502C3.36 36.3408 3.94667 36.5862 4.704 36.5862C4.94933 36.5862 5.20533 36.5488 5.472 36.4742C5.73867 36.3995 6 36.2715 6.256 36.0902C6.40533 36.0048 6.544 35.9728 6.672 35.9942C6.8 36.0155 6.90133 36.0742 6.976 36.1702C7.06133 36.2555 7.11467 36.3622 7.136 36.4902C7.168 36.6075 7.16267 36.7302 7.12 36.8582C7.07733 36.9862 6.98667 37.0928 6.848 37.1782C6.50667 37.4235 6.13333 37.5995 5.728 37.7062C5.33333 37.8128 4.94933 37.8662 4.576 37.8662ZM11.8405 37.8662C11.0512 37.8662 10.3685 37.7008 9.7925 37.3702C9.22717 37.0395 8.7845 36.5702 8.4645 35.9622C8.1445 35.3542 7.9845 34.6395 7.9845 33.8182C7.9845 33.1888 8.07517 32.6288 8.2565 32.1382C8.43783 31.6475 8.69383 31.2262 9.0245 30.8742C9.36583 30.5115 9.77117 30.2395 10.2405 30.0582C10.7205 29.8662 11.2538 29.7702 11.8405 29.7702C12.6192 29.7702 13.2912 29.9355 13.8565 30.2662C14.4325 30.5968 14.8805 31.0662 15.2005 31.6742C15.5205 32.2715 15.6805 32.9862 15.6805 33.8182C15.6805 34.4368 15.5898 34.9968 15.4085 35.4982C15.2272 35.9995 14.9658 36.4262 14.6245 36.7782C14.2938 37.1302 13.8885 37.4022 13.4085 37.5942C12.9392 37.7755 12.4165 37.8662 11.8405 37.8662ZM11.8405 36.6182C12.2778 36.6182 12.6618 36.5115 12.9925 36.2982C13.3232 36.0848 13.5792 35.7702 13.7605 35.3542C13.9525 34.9382 14.0485 34.4262 14.0485 33.8182C14.0485 32.9008 13.8458 32.2075 13.4405 31.7382C13.0352 31.2688 12.5018 31.0342 11.8405 31.0342C11.3925 31.0342 11.0032 31.1408 10.6725 31.3542C10.3418 31.5568 10.0805 31.8662 9.8885 32.2822C9.70717 32.6982 9.6165 33.2102 9.6165 33.8182C9.6165 34.7248 9.81917 35.4182 10.2245 35.8982C10.6298 36.3782 11.1685 36.6182 11.8405 36.6182ZM18.3274 37.8342C18.0714 37.8342 17.874 37.7648 17.7354 37.6262C17.5967 37.4768 17.5274 37.2742 17.5274 37.0182V30.6182C17.5274 30.3515 17.5967 30.1488 17.7354 30.0102C17.874 29.8715 18.066 29.8022 18.3114 29.8022C18.5674 29.8022 18.7594 29.8715 18.8874 30.0102C19.026 30.1488 19.0954 30.3515 19.0954 30.6182V31.9302L18.9194 31.5782C19.1327 31.0128 19.4634 30.5702 19.9114 30.2502C20.3594 29.9302 20.898 29.7702 21.5274 29.7702C22.178 29.7702 22.706 29.9248 23.1114 30.2342C23.5167 30.5435 23.794 31.0182 23.9434 31.6582H23.7194C23.922 31.0715 24.2687 30.6128 24.7594 30.2822C25.25 29.9408 25.8207 29.7702 26.4714 29.7702C27.0687 29.7702 27.5594 29.8875 27.9434 30.1222C28.3274 30.3462 28.6154 30.6928 28.8074 31.1622C28.9994 31.6208 29.0954 32.2022 29.0954 32.9062V37.0182C29.0954 37.2742 29.0207 37.4768 28.8714 37.6262C28.7327 37.7648 28.5354 37.8342 28.2794 37.8342C28.0234 37.8342 27.826 37.7648 27.6874 37.6262C27.5487 37.4768 27.4794 37.2742 27.4794 37.0182V32.9862C27.4794 32.3248 27.362 31.8395 27.1274 31.5302C26.9034 31.2208 26.53 31.0662 26.0074 31.0662C25.4207 31.0662 24.9567 31.2688 24.6154 31.6742C24.274 32.0795 24.1034 32.6395 24.1034 33.3542V37.0182C24.1034 37.2742 24.034 37.4768 23.8954 37.6262C23.7567 37.7648 23.5594 37.8342 23.3034 37.8342C23.0474 37.8342 22.8447 37.7648 22.6954 37.6262C22.5567 37.4768 22.4874 37.2742 22.4874 37.0182V32.9862C22.4874 32.3248 22.3754 31.8395 22.1514 31.5302C21.9274 31.2208 21.554 31.0662 21.0314 31.0662C20.4447 31.0662 19.9807 31.2688 19.6394 31.6742C19.3087 32.0795 19.1434 32.6395 19.1434 33.3542V37.0182C19.1434 37.5622 18.8714 37.8342 18.3274 37.8342ZM32.1868 37.8342C31.9308 37.8342 31.7334 37.7648 31.5948 37.6262C31.4561 37.4768 31.3868 37.2742 31.3868 37.0182V30.6182C31.3868 30.3515 31.4561 30.1488 31.5948 30.0102C31.7334 29.8715 31.9254 29.8022 32.1708 29.8022C32.4268 29.8022 32.6188 29.8715 32.7468 30.0102C32.8854 30.1488 32.9548 30.3515 32.9548 30.6182V31.9302L32.7788 31.5782C32.9921 31.0128 33.3228 30.5702 33.7708 30.2502C34.2188 29.9302 34.7574 29.7702 35.3868 29.7702C36.0374 29.7702 36.5654 29.9248 36.9708 30.2342C37.3761 30.5435 37.6534 31.0182 37.8028 31.6582H37.5788C37.7814 31.0715 38.1281 30.6128 38.6188 30.2822C39.1094 29.9408 39.6801 29.7702 40.3308 29.7702C40.9281 29.7702 41.4188 29.8875 41.8028 30.1222C42.1868 30.3462 42.4748 30.6928 42.6668 31.1622C42.8588 31.6208 42.9548 32.2022 42.9548 32.9062V37.0182C42.9548 37.2742 42.8801 37.4768 42.7308 37.6262C42.5921 37.7648 42.3948 37.8342 42.1388 37.8342C41.8828 37.8342 41.6854 37.7648 41.5468 37.6262C41.4081 37.4768 41.3388 37.2742 41.3388 37.0182V32.9862C41.3388 32.3248 41.2214 31.8395 40.9868 31.5302C40.7628 31.2208 40.3894 31.0662 39.8668 31.0662C39.2801 31.0662 38.8161 31.2688 38.4748 31.6742C38.1334 32.0795 37.9628 32.6395 37.9628 33.3542V37.0182C37.9628 37.2742 37.8934 37.4768 37.7548 37.6262C37.6161 37.7648 37.4188 37.8342 37.1628 37.8342C36.9068 37.8342 36.7041 37.7648 36.5548 37.6262C36.4161 37.4768 36.3468 37.2742 36.3468 37.0182V32.9862C36.3468 32.3248 36.2348 31.8395 36.0108 31.5302C35.7868 31.2208 35.4134 31.0662 34.8908 31.0662C34.3041 31.0662 33.8401 31.2688 33.4988 31.6742C33.1681 32.0795 33.0028 32.6395 33.0028 33.3542V37.0182C33.0028 37.5622 32.7308 37.8342 32.1868 37.8342ZM47.9981 37.8662C47.3688 37.8662 46.8408 37.7488 46.4141 37.5142C45.9981 37.2795 45.6835 36.9328 45.4701 36.4742C45.2675 36.0048 45.1661 35.4182 45.1661 34.7142V30.6182C45.1661 30.3408 45.2355 30.1382 45.3741 30.0102C45.5128 29.8715 45.7101 29.8022 45.9661 29.8022C46.2221 29.8022 46.4195 29.8715 46.5581 30.0102C46.7075 30.1382 46.7821 30.3408 46.7821 30.6182V34.7302C46.7821 35.3595 46.9101 35.8235 47.1661 36.1222C47.4221 36.4208 47.8275 36.5702 48.3821 36.5702C48.9901 36.5702 49.4808 36.3675 49.8541 35.9622C50.2381 35.5462 50.4301 35.0022 50.4301 34.3302V30.6182C50.4301 30.3408 50.4995 30.1382 50.6381 30.0102C50.7768 29.8715 50.9795 29.8022 51.2461 29.8022C51.5021 29.8022 51.6995 29.8715 51.8381 30.0102C51.9768 30.1382 52.0461 30.3408 52.0461 30.6182V37.0182C52.0461 37.5622 51.7848 37.8342 51.2621 37.8342C51.0168 37.8342 50.8248 37.7648 50.6861 37.6262C50.5475 37.4768 50.4781 37.2742 50.4781 37.0182V35.6582L50.6861 36.0102C50.4728 36.6075 50.1315 37.0662 49.6621 37.3862C49.1928 37.7062 48.6381 37.8662 47.9981 37.8662ZM55.1235 37.8342C54.8675 37.8342 54.6702 37.7648 54.5315 37.6262C54.3928 37.4768 54.3235 37.2742 54.3235 37.0182V30.6182C54.3235 30.3515 54.3928 30.1488 54.5315 30.0102C54.6702 29.8715 54.8622 29.8022 55.1075 29.8022C55.3635 29.8022 55.5555 29.8715 55.6835 30.0102C55.8222 30.1488 55.8915 30.3515 55.8915 30.6182V31.8662L55.7155 31.5782C55.9502 30.9808 56.3182 30.5328 56.8195 30.2342C57.3208 29.9248 57.8968 29.7702 58.5475 29.7702C59.1662 29.7702 59.6782 29.8875 60.0835 30.1222C60.4995 30.3462 60.8088 30.6928 61.0115 31.1622C61.2142 31.6208 61.3155 32.2022 61.3155 32.9062V37.0182C61.3155 37.2742 61.2462 37.4768 61.1075 37.6262C60.9688 37.7648 60.7715 37.8342 60.5155 37.8342C60.2488 37.8342 60.0462 37.7648 59.9075 37.6262C59.7688 37.4768 59.6995 37.2742 59.6995 37.0182V33.0022C59.6995 32.3302 59.5662 31.8395 59.2995 31.5302C59.0435 31.2208 58.6382 31.0662 58.0835 31.0662C57.4328 31.0662 56.9102 31.2688 56.5155 31.6742C56.1315 32.0795 55.9395 32.6235 55.9395 33.3062V37.0182C55.9395 37.5622 55.6675 37.8342 55.1235 37.8342ZM64.3423 37.8182C64.0863 37.8182 63.8889 37.7435 63.7503 37.5942C63.6116 37.4342 63.5423 37.2155 63.5423 36.9382V30.6982C63.5423 30.4208 63.6116 30.2075 63.7503 30.0582C63.8889 29.9088 64.0863 29.8342 64.3423 29.8342C64.5983 29.8342 64.7956 29.9088 64.9343 30.0582C65.0836 30.2075 65.1583 30.4208 65.1583 30.6982V36.9382C65.1583 37.2155 65.0889 37.4342 64.9503 37.5942C64.8116 37.7435 64.6089 37.8182 64.3423 37.8182ZM64.3423 28.1702C64.0223 28.1702 63.7716 28.0902 63.5903 27.9302C63.4196 27.7702 63.3343 27.5462 63.3343 27.2582C63.3343 26.9595 63.4196 26.7355 63.5903 26.5862C63.7716 26.4262 64.0223 26.3462 64.3423 26.3462C64.6623 26.3462 64.9076 26.4262 65.0783 26.5862C65.2596 26.7355 65.3503 26.9595 65.3503 27.2582C65.3503 27.5462 65.2596 27.7702 65.0783 27.9302C64.9076 28.0902 64.6623 28.1702 64.3423 28.1702ZM70.7609 37.8662C70.1209 37.8662 69.5822 37.7542 69.1449 37.5302C68.7075 37.3062 68.3822 36.9755 68.1689 36.5382C67.9555 36.1008 67.8489 35.5675 67.8489 34.9382V31.1622H66.8889C66.6755 31.1622 66.5102 31.1088 66.3929 31.0022C66.2755 30.8848 66.2169 30.7302 66.2169 30.5382C66.2169 30.3355 66.2755 30.1808 66.3929 30.0742C66.5102 29.9675 66.6755 29.9142 66.8889 29.9142H67.8489V28.2662C67.8489 27.9995 67.9182 27.7968 68.0569 27.6582C68.2062 27.5195 68.4089 27.4502 68.6649 27.4502C68.9209 27.4502 69.1182 27.5195 69.2569 27.6582C69.3955 27.7968 69.4649 27.9995 69.4649 28.2662V29.9142H71.3369C71.5502 29.9142 71.7155 29.9675 71.8329 30.0742C71.9502 30.1808 72.0089 30.3355 72.0089 30.5382C72.0089 30.7302 71.9502 30.8848 71.8329 31.0022C71.7155 31.1088 71.5502 31.1622 71.3369 31.1622H69.4649V34.8102C69.4649 35.3755 69.5822 35.8022 69.8169 36.0902C70.0622 36.3782 70.4569 36.5222 71.0009 36.5222C71.1929 36.5222 71.3582 36.5062 71.4969 36.4742C71.6462 36.4315 71.7689 36.4048 71.8649 36.3942C71.9822 36.3942 72.0782 36.4368 72.1529 36.5222C72.2275 36.5968 72.2649 36.7462 72.2649 36.9702C72.2649 37.1302 72.2329 37.2795 72.1689 37.4182C72.1155 37.5568 72.0142 37.6475 71.8649 37.6902C71.7369 37.7328 71.5609 37.7702 71.3369 37.8022C71.1235 37.8448 70.9315 37.8662 70.7609 37.8662ZM75.226 40.7142C75.034 40.7142 74.874 40.6608 74.746 40.5542C74.6287 40.4582 74.5593 40.3248 74.538 40.1542C74.5273 39.9942 74.5593 39.8182 74.634 39.6262L75.722 37.1782V37.8662L72.73 30.9062C72.6553 30.7142 72.6287 30.5328 72.65 30.3622C72.6713 30.1915 72.7513 30.0582 72.89 29.9622C73.0287 29.8555 73.2153 29.8022 73.45 29.8022C73.6527 29.8022 73.8127 29.8502 73.93 29.9462C74.0473 30.0422 74.154 30.2075 74.25 30.4422L76.666 36.4102H76.218L78.666 30.4422C78.762 30.1968 78.874 30.0315 79.002 29.9462C79.13 29.8502 79.306 29.8022 79.53 29.8022C79.722 29.8022 79.8713 29.8555 79.978 29.9622C80.0953 30.0582 80.1647 30.1915 80.186 30.3622C80.218 30.5222 80.1913 30.6982 80.106 30.8902L76.106 40.0902C75.9993 40.3355 75.8767 40.5008 75.738 40.5862C75.61 40.6715 75.4393 40.7142 75.226 40.7142Z" fill="white"/>
<path d="M2.096 54C1.808 54 1.6 53.936 1.472 53.808C1.344 53.6693 1.28 53.4827 1.28 53.248C1.28 53.0987 1.31733 52.9547 1.392 52.816C1.46667 52.6773 1.57333 52.5333 1.712 52.384L5.12 48.736C5.64267 48.1813 6.016 47.6747 6.24 47.216C6.47467 46.7467 6.592 46.2773 6.592 45.808C6.592 45.2107 6.41067 44.7573 6.048 44.448C5.68533 44.1387 5.152 43.984 4.448 43.984C4.02133 43.984 3.61067 44.048 3.216 44.176C2.82133 44.304 2.42667 44.512 2.032 44.8C1.872 44.9067 1.72267 44.9547 1.584 44.944C1.44533 44.9333 1.32267 44.88 1.216 44.784C1.12 44.688 1.056 44.5707 1.024 44.432C0.992 44.2933 0.997333 44.1493 1.04 44C1.08267 43.8507 1.184 43.7227 1.344 43.616C1.78133 43.2853 2.288 43.0293 2.864 42.848C3.44 42.6667 4.02667 42.576 4.624 42.576C5.40267 42.576 6.05867 42.6987 6.592 42.944C7.136 43.1787 7.54667 43.5253 7.824 43.984C8.10133 44.4427 8.24 45.0027 8.24 45.664C8.24 46.112 8.16533 46.5493 8.016 46.976C7.87733 47.4027 7.65867 47.84 7.36 48.288C7.072 48.7253 6.69333 49.1893 6.224 49.68L2.992 53.072V52.608H8.08C8.31467 52.608 8.496 52.6667 8.624 52.784C8.752 52.9013 8.816 53.072 8.816 53.296C8.816 53.52 8.752 53.696 8.624 53.824C8.496 53.9413 8.31467 54 8.08 54H2.096ZM14.3938 54.144C13.0818 54.144 12.0791 53.648 11.3858 52.656C10.7031 51.6533 10.3618 50.2187 10.3618 48.352C10.3618 47.0827 10.5164 46.0213 10.8258 45.168C11.1351 44.3147 11.5884 43.6693 12.1858 43.232C12.7831 42.7947 13.5191 42.576 14.3938 42.576C15.7164 42.576 16.7191 43.0667 17.4018 44.048C18.0844 45.0187 18.4258 46.448 18.4258 48.336C18.4258 49.584 18.2711 50.64 17.9618 51.504C17.6524 52.368 17.1991 53.024 16.6018 53.472C16.0044 53.92 15.2684 54.144 14.3938 54.144ZM14.3938 52.768C15.2151 52.768 15.8178 52.4107 16.2018 51.696C16.5964 50.9707 16.7938 49.8507 16.7938 48.336C16.7938 46.8107 16.5964 45.7013 16.2018 45.008C15.8178 44.304 15.2151 43.952 14.3938 43.952C13.5831 43.952 12.9804 44.304 12.5858 45.008C12.1911 45.7013 11.9938 46.8107 11.9938 48.336C11.9938 49.8507 12.1911 50.9707 12.5858 51.696C12.9804 52.4107 13.5831 52.768 14.3938 52.768ZM21.2835 54C20.9955 54 20.7875 53.936 20.6595 53.808C20.5315 53.6693 20.4675 53.4827 20.4675 53.248C20.4675 53.0987 20.5048 52.9547 20.5795 52.816C20.6542 52.6773 20.7608 52.5333 20.8995 52.384L24.3075 48.736C24.8302 48.1813 25.2035 47.6747 25.4275 47.216C25.6622 46.7467 25.7795 46.2773 25.7795 45.808C25.7795 45.2107 25.5982 44.7573 25.2355 44.448C24.8728 44.1387 24.3395 43.984 23.6355 43.984C23.2088 43.984 22.7982 44.048 22.4035 44.176C22.0088 44.304 21.6142 44.512 21.2195 44.8C21.0595 44.9067 20.9102 44.9547 20.7715 44.944C20.6328 44.9333 20.5102 44.88 20.4035 44.784C20.3075 44.688 20.2435 44.5707 20.2115 44.432C20.1795 44.2933 20.1848 44.1493 20.2275 44C20.2702 43.8507 20.3715 43.7227 20.5315 43.616C20.9688 43.2853 21.4755 43.0293 22.0515 42.848C22.6275 42.6667 23.2142 42.576 23.8115 42.576C24.5902 42.576 25.2462 42.6987 25.7795 42.944C26.3235 43.1787 26.7342 43.5253 27.0115 43.984C27.2888 44.4427 27.4275 45.0027 27.4275 45.664C27.4275 46.112 27.3528 46.5493 27.2035 46.976C27.0648 47.4027 26.8462 47.84 26.5475 48.288C26.2595 48.7253 25.8808 49.1893 25.4115 49.68L22.1795 53.072V52.608H27.2675C27.5022 52.608 27.6835 52.6667 27.8115 52.784C27.9395 52.9013 28.0035 53.072 28.0035 53.296C28.0035 53.52 27.9395 53.696 27.8115 53.824C27.6835 53.9413 27.5022 54 27.2675 54H21.2835ZM35.4373 54.112C35.1813 54.112 34.9786 54.0427 34.8293 53.904C34.6799 53.7547 34.6053 53.552 34.6053 53.296V51.712H30.3173C30.0506 51.712 29.8373 51.6533 29.6773 51.536C29.5173 51.4187 29.4373 51.2373 29.4373 50.992C29.4373 50.8533 29.4693 50.704 29.5333 50.544C29.6079 50.384 29.7359 50.176 29.9173 49.92L34.5733 43.152C34.6906 42.9707 34.8239 42.8373 34.9733 42.752C35.1226 42.656 35.2933 42.608 35.4853 42.608C35.7093 42.608 35.8906 42.6773 36.0293 42.816C36.1786 42.944 36.2533 43.1467 36.2533 43.424V50.32H37.2613C37.5173 50.32 37.7039 50.3787 37.8212 50.496C37.9493 50.6133 38.0133 50.784 38.0133 51.008C38.0133 51.2427 37.9493 51.4187 37.8212 51.536C37.7039 51.6533 37.5173 51.712 37.2613 51.712H36.2533V53.296C36.2533 53.552 36.1786 53.7547 36.0293 53.904C35.8906 54.0427 35.6933 54.112 35.4373 54.112ZM34.6053 50.32V44.672H35.0373L30.8613 50.768V50.32H34.6053Z" fill="white"/>
<path d="M1.872 24.168C1.552 24.168 1.296 24.096 1.104 23.952C0.912 23.808 0.8 23.616 0.768 23.376C0.736 23.136 0.784 22.864 0.912 22.56L7.416 7.968C7.576 7.584 7.776 7.312 8.016 7.152C8.272 6.992 8.552 6.912 8.856 6.912C9.144 6.912 9.408 6.992 9.648 7.152C9.904 7.312 10.112 7.584 10.272 7.968L16.776 22.56C16.92 22.864 16.976 23.144 16.944 23.4C16.912 23.64 16.808 23.832 16.632 23.976C16.456 24.104 16.208 24.168 15.888 24.168C15.536 24.168 15.256 24.08 15.048 23.904C14.84 23.728 14.656 23.456 14.496 23.088L12.816 19.2L13.944 19.872H3.72L4.824 19.2L3.168 23.088C3.008 23.472 2.832 23.752 2.64 23.928C2.448 24.088 2.192 24.168 1.872 24.168ZM8.808 9.84L5.184 18.432L4.584 17.856H13.056L12.504 18.432L8.856 9.84H8.808ZM20.8879 24.168C20.4879 24.168 20.1759 24.056 19.9519 23.832C19.7439 23.608 19.6399 23.296 19.6399 22.896V8.184C19.6399 7.768 19.7439 7.456 19.9519 7.248C20.1759 7.024 20.4879 6.912 20.8879 6.912C21.2879 6.912 21.5919 7.024 21.7999 7.248C22.0239 7.456 22.1359 7.768 22.1359 8.184V22.896C22.1359 23.296 22.0319 23.608 21.8239 23.832C21.6159 24.056 21.3039 24.168 20.8879 24.168Z" fill="white"/>
</svg>
